<svg id="Layer_1" data-name="Layer 1" xmlns="http://www.w3.org/2000/svg" xmlns:xlink="http://www.w3.org/1999/xlink" width="2378.49806mm" height="1298.90625mm" viewBox="0 0 6742.19922 3681.93896"><defs><style>.cls-1,.cls-12,.cls-13{fill:none;}.cls-2{clip-path:url(#clip-path);}.cls-3{fill:#a1a1a1;}.cls-4{fill:#6d6d6d;}.cls-5{fill:#181818;}.cls-6{fill:#313131;}.cls-7{fill:#272727;}.cls-8{fill:#363636;}.cls-9{fill:#303030;}.cls-10{fill:#4aca8d;}.cls-11{fill:#fff;}.cls-12,.cls-13{stroke:#000;stroke-miterlimit:10;}.cls-12{stroke-width:3px;}</style><clipPath id="clip-path" transform="translate(3153.25098 511.71522)"><rect class="cls-1" x="-6107" y="-3517.11024" width="12808.33398" height="7878.45117"/></clipPath></defs><title>tennis court export</title><g class="cls-2"><path class="cls-3" d="M210.64941-492.32606h-3.60058v-1.273h3.60058v1.273Zm0,0" transform="translate(3153.25098 511.71522)"/><path class="cls-3" d="M207.04883-492.32606h3.60058v1.27246h-3.60058Zm0,0" transform="translate(3153.25098 511.71522)"/><path class="cls-4" d="M210.64941-493.599h-3.60058v-.52685h3.60058Zm0,0" transform="translate(3153.25098 511.71522)"/><path class="cls-5" d="M224.3291-501.3744h.71973v.34034h-.71973Zm0,0" transform="translate(3153.25098 511.71522)"/><path class="cls-6" d="M224.3291-501.03406h.71973v1.38427h-.71973Zm0,0" transform="translate(3153.25098 511.71522)"/><path class="cls-5" d="M224.3291-501.3744v.34034h-12.96v-.34034Zm0,0" transform="translate(3153.25098 511.71522)"/><path class="cls-4" d="M228.64941-489.92176h-3.60058v-.73779h3.60058Zm0,0" transform="translate(3153.25098 511.71522)"/><path class="cls-4" d="M225.04883-490.65955v.73779h-.71973v-.73779Zm0,0" transform="translate(3153.25098 511.71522)"/><path class="cls-3" d="M228.64941-490.65955h-3.60058v-1.78223h3.60058Zm0,0" transform="translate(3153.25098 511.71522)"/><path class="cls-6" d="M210.64941-499.64979v-1.38427h.71973v1.38427Zm0,0" transform="translate(3153.25098 511.71522)"/><path class="cls-3" d="M225.04883-492.44178v1.78223h-.71973v-1.78223Zm0,0" transform="translate(3153.25098 511.71522)"/><path class="cls-7" d="M211.36914-497.12879h-.71973v-.90283h.71973Zm0,0" transform="translate(3153.25098 511.71522)"/><path class="cls-7" d="M211.36914-497.12879v-.90283h12.96v.90283Zm0,0" transform="translate(3153.25098 511.71522)"/><path class="cls-8" d="M224.3291-498.03162h-12.96v-1.61817h12.96Zm0,0" transform="translate(3153.25098 511.71522)"/><path class="cls-7" d="M224.3291-497.12879v-.90283h.71973v.90283Zm0,0" transform="translate(3153.25098 511.71522)"/><path class="cls-8" d="M211.36914-498.03162h-.71973v-1.61817h.71973Zm0,0" transform="translate(3153.25098 511.71522)"/><path class="cls-4" d="M210.64941-490.52625h-3.60058v-.52735h3.60058v.52735Zm0,0" transform="translate(3153.25098 511.71522)"/><path class="cls-4" d="M228.64941-494.9618v.73828h-3.60058v-.73828Zm0,0" transform="translate(3153.25098 511.71522)"/><path class="cls-4" d="M225.04883-494.9618v.73828h-.71973v-.73828Zm0,0" transform="translate(3153.25098 511.71522)"/><path class="cls-3" d="M225.04883-494.22352h3.60058v1.78174h-3.60058Zm0,0" transform="translate(3153.25098 511.71522)"/><path class="cls-3" d="M225.04883-494.22352v1.78174h-.71973v-1.78174Zm0,0" transform="translate(3153.25098 511.71522)"/><path class="cls-8" d="M224.3291-498.03162v-1.61817h.71973v1.61817Zm0,0" transform="translate(3153.25098 511.71522)"/><path class="cls-5" d="M211.36914-501.03406h-.71973v-.34034h.71973Zm0,0" transform="translate(3153.25098 511.71522)"/><path class="cls-6" d="M211.36914-499.64979v-1.38427h12.96v1.38427Zm0,0" transform="translate(3153.25098 511.71522)"/><path class="cls-4" d="M210.64941-494.22352v-.73828h.71973v.73828Zm0,0" transform="translate(3153.25098 511.71522)"/><path class="cls-3" d="M210.64941-492.44178v-1.78174h.71973v1.78174Zm0,0" transform="translate(3153.25098 511.71522)"/><path class="cls-3" d="M210.64941-492.32606v-.11572h.71973v1.78223h-.71973v-1.66651Zm0,0" transform="translate(3153.25098 511.71522)"/><path class="cls-4" d="M210.64941-490.52625v-.1333h.71973v.73779h-.71973Zm0,0" transform="translate(3153.25098 511.71522)"/><path class="cls-4" d="M211.36914-494.9618h12.96v.73828h-12.96Zm0,0" transform="translate(3153.25098 511.71522)"/><path class="cls-3" d="M211.36914-494.22352h12.96v1.78174h-12.96Zm0,0" transform="translate(3153.25098 511.71522)"/><path class="cls-4" d="M224.3291-489.92176h-12.96v-.73779h12.96Zm0,0" transform="translate(3153.25098 511.71522)"/><path class="cls-3" d="M224.3291-490.65955h-12.96v-1.78223h12.96Zm0,0" transform="translate(3153.25098 511.71522)"/><path class="cls-9" d="M228.03174,3168.72375H207.6665l10.18262-10.18237Zm0,0" transform="translate(3153.25098 511.71522)"/><path class="cls-9" d="M228.03174,3148.35876v20.365l-10.18262-10.18237Zm0,0" transform="translate(3153.25098 511.71522)"/><path class="cls-9" d="M207.6665,3148.35876h20.36524l-10.18262,10.18262Zm0,0" transform="translate(3153.25098 511.71522)"/><path class="cls-9" d="M207.6665,3168.72375v-20.365l10.18262,10.18262Zm0,0" transform="translate(3153.25098 511.71522)"/><path class="cls-9" d="M228.03174-460.07606H207.6665l10.18262-10.18261Zm0,0" transform="translate(3153.25098 511.71522)"/><path class="cls-9" d="M228.03174-480.4408v20.36474l-10.18262-10.18261Zm0,0" transform="translate(3153.25098 511.71522)"/><path class="cls-9" d="M207.6665-480.4408h20.36524l-10.18262,10.18213Zm0,0" transform="translate(3153.25098 511.71522)"/><path class="cls-9" d="M207.6665-460.07606V-480.4408l10.18262,10.18213Zm0,0" transform="translate(3153.25098 511.71522)"/><path class="cls-10" d="M3558.64941,173.524V1332.7235h-28.80078v14.40015h28.80078v1159.2H2032.24854V173.524Zm0,0" transform="translate(3153.25098 511.71522)"/><path class="cls-11" d="M3558.64941,1332.7235V173.524H2032.24854V2506.3236h-14.39991v-1159.2H217.84912V1332.7235H2017.84863V173.524H217.84912V159.12365H3558.64941v-360H217.84912v-14.3999H3587.44824v3110.3999H217.84912V2880.7235H3558.64941V1347.12365h-28.80078V1332.7235Zm0,0" transform="translate(3153.25098 511.71522)"/><path class="cls-11" d="M-3151.751,2895.12365V-215.27625H217.84912v14.3999h-3340.8v360H217.84912V173.524H-1582.15137V1332.7235H217.84912v14.40015H-1582.15137v1159.2H217.84912v14.3999h-3340.8v360H217.84912v14.40015Zm28.8-388.8h1526.39966V173.524H-3122.95093V1332.7235h28.8v14.40015h-28.8Zm0,0" transform="translate(3153.25098 511.71522)"/><path class="cls-10" d="M-3122.95093,159.12365v-360H217.84912v360Zm0,0" transform="translate(3153.25098 511.71522)"/><path class="cls-10" d="M3558.64941-200.87635v360H217.84912v-360Zm0,0" transform="translate(3153.25098 511.71522)"/><path class="cls-10" d="M-3122.95093,2880.7235v-360H217.84912v360Zm0,0" transform="translate(3153.25098 511.71522)"/><path class="cls-11" d="M3558.64941,2506.3236v14.3999H217.84912v-14.3999H3558.64941Zm0,0" transform="translate(3153.25098 511.71522)"/><path class="cls-10" d="M2017.84863,1347.12365v1159.2H217.84912v-1159.2Zm0,0" transform="translate(3153.25098 511.71522)"/><path class="cls-10" d="M-1582.15137,1332.7235V173.524H217.84912V1332.7235Zm0,0" transform="translate(3153.25098 511.71522)"/><path class="cls-10" d="M2017.84863,173.524V1332.7235H217.84912V173.524Zm0,0" transform="translate(3153.25098 511.71522)"/><path class="cls-10" d="M217.84912,2506.3236H-1582.15137v-1159.2H217.84912Zm0,0" transform="translate(3153.25098 511.71522)"/><path class="cls-10" d="M217.84912,2520.7235H3558.64941v360H217.84912Zm0,0" transform="translate(3153.25098 511.71522)"/><path class="cls-10" d="M-1596.55127,2506.3236H-3122.95093v-1159.2h28.8V1332.7235h-28.8V173.524h1526.39966Zm0,0" transform="translate(3153.25098 511.71522)"/><path class="cls-12" d="M207.04883-493.599v1.273m4.32031-4.80273h-.71973m13.67969,0h-12.96m0-.90283v.90283m12.96-.90283v.90283m0-3.90527v-.34034m.71973,0h-.71973m.71973,0v.34034m0,10.37451v.73779m0,0h3.60058m-18-11.1123v1.38427M207.6665,3168.72375h20.36524m0,0v-20.365m0,0H207.6665m0,0v20.365M224.3291-501.3744h-12.96m13.67969,8.93262v1.78223m0-3.564v1.78174m0-2.52v.73828m-14.39942-.73828v-2.167m0,6.60254h-3.60058m0-3.59961v.52685m3.60058-.52685h-3.60058m21.60058-.83594v.73828m-3.60058-.73828h3.60058m-4.32031-4.688v1.61817m-17.28027,5.70556v1.27246m0,0v.52735m18-6.60254h-.71973m-12.96-3.90527v1.38427m-.71973-1.72461v.34034m0,1.38427v1.61817m0,3.06982v.73828m.71973-7.15088h-.71973m.71973.34034v-.34034m0,1.72461v1.61817m-3.70264,37.95556h20.36524m0,0V-480.4408m0,0H207.6665m0,0v20.36474m16.6626-40.958v1.38427M3558.64941,173.524V1332.7235m-28.80078,14.40015h28.80078m0,0v1159.2m28.79883,388.8V-215.27625M-3151.751,2895.12365V-215.27625m28.8,14.3999v360m6681.60034-360v360m-3340.80029,0H3558.64941m-6681.60034,0H217.84912m-3340.8,2361.59985v360" transform="translate(3153.25098 511.71522)"/><path class="cls-13" d="M3558.64941,2506.3236v14.3999m-1526.40087-14.3999h-14.39991" transform="translate(3153.25098 511.71522)"/><path class="cls-12" d="M2017.84863,1347.12365v1159.2m14.39991,0V173.524m0,0H3558.64941M3529.84863,1332.7235h28.80078m-28.80078,14.40015V1332.7235m-5112-1159.19946V1332.7235m3600,0V173.524M-1596.55127,2506.3236H-3122.95093m0-1159.2v1159.2m28.8-1159.2h-28.8m28.8-14.40015v14.40015m-28.8-14.40015h28.8m-28.8-1159.19946V1332.7235M-1596.55127,173.524H-3122.95093m1526.39966,0V2506.3236M210.64941-493.599v1.15723m0,0v.11572m0,1.66651v.1333m0,0v.60449m.71973-5.04h-.71973m.71973,5.04h-.71973M-3151.751,2895.12365H217.84912m0,0H3587.44824m-1569.59961-388.8H217.84912m0,0H-1582.15137m5140.80078,14.3999H217.84912m0,0h-3340.8M2017.84863,1347.12365H217.84912m0,0H-1582.15137M3587.44824-215.27625H217.84912m0,0H-3151.751m28.8,14.3999H217.84912m0,0H3558.64941m0,3081.59985H217.84912m0,0h-3340.8m5140.79956-1548H217.84912m0,0H-1582.15137m3600-1159.19946H217.84912m0,0H-1582.15137M217.84912-200.87635v360m0,0V173.524m0,0V1332.7235m7.19971-1827.6853v-2.167m-7.19971,3392.25244V2880.7235m0,0v-360m-7.19971-3014.947v.09766m0,0v.52685m0,1.273v1.27246m0,0v.394m14.39942-4.30225h-.71973m0,0h-12.96m13.67969,5.04h-.71973m0,0h-12.96m6.48,274.64551v14.3999m-6.48-289.04541v-.73779m12.96-3.564v1.78174m0,1.78223v.73779m-6.48,3010.64526v-14.3999m0,0v-1159.2m-6.48-1839.56543v-1.78174m0,0v-.73828m12.96,0v.73828m0-2.90527v2.167m.71973-6.07226v1.38427m0,0v1.61817m0,.90283v-.90283m-13.67969.90283v2.167m17.28027,4.30225v.73779m-4.32031-2.52v1.78223m-6.48,1837.7832V1332.7235M228.64941-492.44178v1.78223m0-3.564v1.78174m-18-5.58984v.90283m.71973,4.687v1.78223M3558.64941,2880.7235v-360m-1526.40087-14.3999H3558.64941m-5140.80078,0v-1159.2M217.84912,3118.32971v21.594M210.64941-486.94666h14.39942m-7.19971,3605.27637v21.594m0-3578.40649v-21.59327m0-28.80029v-12.15771m0,62.55127v-21.59327m-7.19971-26.8706h14.39942m2.98291,21.959,2.2876-2.28857m-24.94092,0,2.28808,2.28857m2.98291-21.959-5.271,5.27051m12.4707-7.2002-7.19971,1.92969m14.39942,0-7.19971-1.92969M232.249-474.476l-1.92968-7.20019m0,14.3999L232.249-474.476m-1.92968-7.20019-5.27051-5.27051m-21.6001,12.4707,1.92969,7.19971m0-14.3999-1.92969,7.20019m14.40039,3592.80567V2895.12365m6.48-3381.91162v-3.13379m0-11.45264v-10.34082m-6.48,73.23243v223.20654m-6.48-271.51172v-3.13379m0-11.45264v-10.34082m-.71973,10.34082v-1.773m14.39942,16.20069v-2.9751m0-13.21973v1.76709m-14.39942,14.42774v-2.9751" transform="translate(3153.25098 511.71522)"/></g></svg>